<svg width="32" height="32" viewBox="0 0 32 32" xmlns="http://www.w3.org/2000/svg">
  <rect width="32" height="32" rx="8" fill="#F5F0E8"/>
  <!-- smitten terracotta pot -->
  <path d="M11 10 Q16 8 21 10 L19.5 13 Q23 15 22.5 20 Q22 25.5 16 26 Q10 25.5 9.5 20 Q9 15 12.5 13 Z"
        fill="#B85C2A" stroke="#2C1810" stroke-width="1.8" stroke-linejoin="round"/>
  <!-- happy face -->
  <circle cx="13.5" cy="18.5" r="1.1" fill="#2C1810"/>
  <circle cx="18.5" cy="18.5" r="1.1" fill="#2C1810"/>
  <path d="M13.6 21 Q16 23 18.4 21" fill="none" stroke="#2C1810" stroke-width="1.4" stroke-linecap="round"/>
  <!-- blush -->
  <ellipse cx="11.6" cy="20.4" rx="1.3" ry="0.9" fill="#D4847A" opacity="0.55"/>
  <ellipse cx="20.4" cy="20.4" rx="1.3" ry="0.9" fill="#D4847A" opacity="0.55"/>
  <!-- floating hearts -->
  <path d="M24 5.6 C24.9 4.5 26.7 5 26.7 6.4 C26.7 7.6 25.1 8.7 24 9.6 C22.9 8.7 21.3 7.6 21.3 6.4 C21.3 5 23.1 4.5 24 5.6 Z"
        fill="#C25B4E" stroke="#2C1810" stroke-width="0.9" stroke-linejoin="round"/>
  <path d="M7.4 7.2 C8 6.4 9.2 6.8 9.2 7.8 C9.2 8.6 8.1 9.3 7.4 9.9 C6.7 9.3 5.6 8.6 5.6 7.8 C5.6 6.8 6.8 6.4 7.4 7.2 Z"
        fill="#C25B4E" opacity="0.85"/>
</svg>
